<svg version="1" xmlns="http://www.w3.org/2000/svg" width="682.667" height="682.667" viewBox="0 0 512.000000 512.000000"><path d="M0 220.6v220.7l10.4-10c101.4-97.8 157.3-199.9 172-314.8 4.4-34.1 4.9-88.4 1-112.8l-.6-3.7H0v220.6zM203.1 13.2c2.9 14.4 6.1 35.6 8.1 53.8 1.7 15.6 1.7 75.7 0 92-1.7 16-5.8 43-8.3 54.4-1.1 4.9-1.8 9-1.6 9.2.1.2 2.9-4.5 6.1-10.3 14.4-25.9 30.9-47.7 53.6-70.4 18.5-18.5 30.2-28.2 50-41.4 39.1-26 81.5-42.3 130-49.8 11.2-1.7 18.4-2.1 42.2-2.1l28.8-.1V0H200.3l2.8 13.2z"/><path d="M423.5 83.4c-51.2 16.8-94.7 46.1-128.7 86.6-35.4 42.1-57.6 94.5-62.9 148.5-1.7 18-.7 55.9 2 71 7.6 42.4 24 81 48.2 113.3l6.9 9.2 83.3-.1h83.2l-10.8-3.8c-53.7-19.2-96.2-56.7-123.3-108.6-25.5-48.8-31.6-107.7-16.9-163.1 17.2-65.3 62.3-120.6 123.3-151.6 6.3-3.2 10.8-5.8 10.1-5.7-.8 0-7.2 1.9-14.4 4.3z"/><path d="M494 136.7c-37.2 6.1-65.5 18.8-92.9 41.8-43 36.1-68 97.1-63.3 154.3 3.8 45.9 22.8 88.1 54.7 121.1 20.8 21.6 47.2 38.6 78.5 50.4 13.1 5 19.9 6.6 31.3 7.4l9.7.6V136l-7.7.1c-4.3.1-8.9.4-10.3.6zM166 325.8c-23 53-68.5 121.5-117.9 177.2l-7.5 8.5 76.8.3c42.3.1 77.1 0 77.4-.2.2-.3-1.9-6-4.6-12.8-12.4-30.6-19.9-60.9-23.3-94.6-1.5-14.9-.6-58.9 1.6-74.1.8-6.2 1.4-11.5 1.2-11.7-.2-.2-1.9 3.1-3.7 7.4z"/></svg>